<svg width="70" height="71" viewBox="0 0 70 71" fill="none" xmlns="http://www.w3.org/2000/svg">
<mask id="mask0_318_163" style="mask-type:luminance" maskUnits="userSpaceOnUse" x="10" y="11" width="50" height="50">
<path d="M60 11H10V61H60V11Z" fill="white"/>
</mask>
<g mask="url(#mask0_318_163)">
<path d="M11.25 43.6785L12.7903 44.412C14.2052 45.0857 16.1241 45.4642 18.125 45.4642C20.1259 45.4642 22.0448 45.0857 23.4597 44.412L24.0403 44.1355C25.4552 43.4618 27.3741 43.0833 29.375 43.0833C31.376 43.0833 33.2947 43.4618 34.7097 44.1355L35.2903 44.412C36.7053 45.0857 38.624 45.4642 40.625 45.4642C42.626 45.4642 44.5447 45.0857 45.9597 44.412L46.5402 44.1355C47.9552 43.4618 49.874 43.0833 51.875 43.0833C53.8758 43.0833 55.7946 43.4618 57.2096 44.1355L58.75 44.869M11.25 50.8213L12.7903 51.5548C14.2052 52.2286 16.1241 52.607 18.125 52.607C20.1259 52.607 22.0448 52.2286 23.4597 51.5548L24.0403 51.2784C25.4552 50.6045 27.3741 50.2261 29.375 50.2261C31.376 50.2261 33.2947 50.6045 34.7097 51.2784L35.2903 51.5548C36.7053 52.2286 38.624 52.607 40.625 52.607C42.626 52.607 44.5447 52.2286 45.9597 51.5548L46.5402 51.2784C47.9552 50.6045 49.874 50.2261 51.875 50.2261C53.8758 50.2261 55.7946 50.6045 57.2096 51.2784L58.75 52.0118M11.25 57.9641L12.7903 58.6978C14.2052 59.3716 16.1241 59.7499 18.125 59.7499C20.1259 59.7499 22.0448 59.3716 23.4597 58.6978L24.0403 58.4212C25.4552 57.7474 27.3741 57.3691 29.375 57.3691C31.376 57.3691 33.2947 57.7474 34.7097 58.4212L35.2903 58.6978C36.7053 59.3716 38.624 59.7499 40.625 59.7499C42.626 59.7499 44.5447 59.3716 45.9597 58.6978L46.5402 58.4212C47.9552 57.7474 49.874 57.3691 51.875 57.3691C53.8758 57.3691 55.7946 57.7474 57.2096 58.4212L58.75 59.1545" stroke="black" stroke-width="2.5" stroke-linecap="round" stroke-linejoin="round"/>
<path d="M39.9257 26.7311C39.9257 28.288 39.3543 29.7813 38.337 30.8822C37.7596 31.5072 37.0652 31.9771 36.3095 32.2663M43.5417 27.1223C43.5417 18.7566 35.1042 12.25 35.1042 12.25C35.1042 12.25 26.6667 18.7566 26.6667 27.1223C26.6667 29.5875 27.5556 31.9519 29.138 33.6952C30.7203 35.4382 32.8665 36.4167 35.1043 36.4167C37.342 36.4167 39.488 35.4378 41.0703 33.6947C42.6527 31.9514 43.5417 29.5875 43.5417 27.1223Z" stroke="black" stroke-width="2.5" stroke-linecap="round" stroke-linejoin="round"/>
</g>
<rect x="1" y="1.5" width="68" height="68" rx="11" stroke="#313131" stroke-width="2"/>
</svg>
